<mxfile host="app.diagrams.net" modified="2023-07-18T20:23:26.360Z" agent="Mozilla/5.0 (Macintosh; Intel Mac OS X 10_15_7) AppleWebKit/537.36 (KHTML, like Gecko) Chrome/114.0.0.0 Safari/537.36" version="21.5.2" etag="KB9-3PWXBYCJbk13Sjsp" type="github">
  <diagram name="Page-1" id="oRGLiRrUHC8tbIwjVjM2">
    <mxGraphModel>
      <root>
        <mxCell id="0" />
        <mxCell id="1" parent="0" />
      </root>
    </mxGraphModel>
  </diagram>
</mxfile>
